<svg width="108" height="22" viewBox="0 0 108 22" fill="none" xmlns="http://www.w3.org/2000/svg">
<circle r="9.56993" transform="matrix(1 0 0 -1 10.7828 10.1644)" fill="#E44332" stroke="#E44332"/>
<path d="M14.8935 13.0758C14.2661 13.9628 13.3685 14.6231 12.3349 14.958C11.3013 15.2929 10.187 15.2844 9.1586 14.9339C8.13017 14.5833 7.24273 13.9095 6.62881 13.0131C6.01489 12.1166 5.70743 11.0456 5.75235 9.96C5.79727 8.8744 6.19216 7.83246 6.87804 6.98978C7.56392 6.14711 8.504 5.54891 9.55787 5.28452C10.6117 5.02014 11.7229 5.10377 12.7253 5.5229C13.7277 5.94204 14.5677 6.6742 15.1197 7.61004L10.783 10.1682L14.8935 13.0758Z" fill="#FEF7F7"/>
<path d="M31.4586 9.26883H29.7266V7.01317H31.4586V3.99219H34.0969V7.01317H36.5137V9.26883H34.0969V13.0954C34.0969 13.3237 34.1171 13.5385 34.1573 13.7399C34.211 13.9279 34.305 14.089 34.4393 14.2232C34.6273 14.4381 34.8958 14.5455 35.2449 14.5455C35.4731 14.5455 35.6544 14.5253 35.7887 14.4851C35.9229 14.4313 36.0505 14.3642 36.1713 14.2837L36.9165 16.5997C36.6077 16.7474 36.272 16.8548 35.9095 16.922C35.5604 17.0025 35.171 17.0428 34.7414 17.0428C34.2446 17.0428 33.7948 16.969 33.392 16.8213C33.0026 16.6602 32.6737 16.4453 32.4052 16.1768C31.7741 15.5726 31.4586 14.7133 31.4586 13.5989V9.26883Z" fill="black"/>
<path d="M43.0286 6.69093C43.7939 6.69093 44.4921 6.82519 45.1232 7.09373C45.7676 7.34883 46.3181 7.71135 46.7746 8.18128C47.2446 8.63778 47.6071 9.18827 47.8622 9.83275C48.1307 10.4772 48.265 11.1821 48.265 11.9474C48.265 12.7127 48.1307 13.4176 47.8622 14.0621C47.6071 14.7066 47.2446 15.2638 46.7746 15.7337C46.3181 16.1902 45.7676 16.5527 45.1232 16.8213C44.4921 17.0764 43.7939 17.2039 43.0286 17.2039C42.2633 17.2039 41.5584 17.0764 40.9139 16.8213C40.2829 16.5527 39.7324 16.1902 39.2625 15.7337C38.806 15.2638 38.4434 14.7066 38.1749 14.0621C37.9198 13.4176 37.7923 12.7127 37.7923 11.9474C37.7923 11.1821 37.9198 10.4772 38.1749 9.83275C38.4434 9.18827 38.806 8.63778 39.2625 8.18128C39.7324 7.71135 40.2829 7.34883 40.9139 7.09373C41.5584 6.82519 42.2633 6.69093 43.0286 6.69093ZM43.0286 14.767C43.3643 14.767 43.6865 14.7066 43.9953 14.5858C44.3176 14.4515 44.5995 14.2635 44.8412 14.0218C45.0829 13.7802 45.2709 13.4848 45.4051 13.1357C45.5528 12.7866 45.6267 12.3905 45.6267 11.9474C45.6267 11.5044 45.5528 11.1083 45.4051 10.7592C45.2709 10.4101 45.0829 10.1147 44.8412 9.87303C44.5995 9.63135 44.3176 9.45009 43.9953 9.32925C43.6865 9.19499 43.3643 9.12785 43.0286 9.12785C42.6795 9.12785 42.3506 9.19499 42.0418 9.32925C41.733 9.45009 41.4577 9.63135 41.216 9.87303C40.9744 10.1147 40.7797 10.4101 40.632 10.7592C40.4977 11.1083 40.4306 11.5044 40.4306 11.9474C40.4306 12.3905 40.4977 12.7866 40.632 13.1357C40.7797 13.4848 40.9744 13.7802 41.216 14.0218C41.4577 14.2635 41.733 14.4515 42.0418 14.5858C42.3506 14.7066 42.6795 14.767 43.0286 14.767Z" fill="black"/>
<path d="M49.7813 7.01317H52.2585V8.20142H52.4196C52.6613 7.7852 53.0372 7.42939 53.5475 7.13401C54.0577 6.83862 54.6887 6.69093 55.4406 6.69093C56.0716 6.69093 56.6691 6.82519 57.233 7.09373C57.8104 7.34883 58.3139 7.71135 58.7435 8.18128C59.1866 8.63778 59.5357 9.18827 59.7908 9.83275C60.0459 10.4772 60.1735 11.1821 60.1735 11.9474C60.1735 12.7127 60.0459 13.4176 59.7908 14.0621C59.5357 14.7066 59.1866 15.2638 58.7435 15.7337C58.3139 16.1902 57.8104 16.5527 57.233 16.8213C56.6691 17.0764 56.0716 17.2039 55.4406 17.2039C54.6887 17.2039 54.0577 17.0562 53.5475 16.7609C53.0372 16.4655 52.6613 16.1097 52.4196 15.6934H52.2585L52.4196 17.1032V21.2319H49.7813V7.01317ZM54.8968 14.767C55.2459 14.767 55.5749 14.6999 55.8837 14.5656C56.2059 14.4313 56.4879 14.2434 56.7296 14.0017C56.9712 13.76 57.1659 13.4646 57.3136 13.1155C57.4613 12.7665 57.5351 12.3771 57.5351 11.9474C57.5351 11.5178 57.4613 11.1284 57.3136 10.7793C57.1659 10.4302 56.9712 10.1348 56.7296 9.89317C56.4879 9.65149 56.2059 9.46352 55.8837 9.32925C55.5749 9.19499 55.2459 9.12785 54.8968 9.12785C54.5477 9.12785 54.2121 9.19499 53.8898 9.32925C53.581 9.45009 53.3058 9.63135 53.0641 9.87303C52.8224 10.1147 52.6277 10.4101 52.48 10.7592C52.3323 11.1083 52.2585 11.5044 52.2585 11.9474C52.2585 12.3905 52.3323 12.7866 52.48 13.1357C52.6277 13.4848 52.8224 13.7802 53.0641 14.0218C53.3058 14.2635 53.581 14.4515 53.8898 14.5858C54.2121 14.7066 54.5477 14.767 54.8968 14.767Z" fill="black"/>
<path d="M61.7609 7.01317H64.2381V8.30212H64.3992C64.708 7.81876 65.1243 7.42939 65.6479 7.13401C66.185 6.83862 66.7757 6.69093 67.4202 6.69093C68.1721 6.69093 68.8031 6.86547 69.3133 7.21457C69.8236 7.56366 70.1861 7.99331 70.4009 8.50352C70.7097 8.00673 71.1461 7.5838 71.71 7.23471C72.2739 6.87219 72.9587 6.69093 73.7643 6.69093C74.3684 6.69093 74.8921 6.79163 75.3352 6.99303C75.7782 7.181 76.1408 7.44953 76.4227 7.79862C76.7181 8.14771 76.9396 8.57065 77.0873 9.06743C77.235 9.55079 77.3089 10.0811 77.3089 10.6585V16.8817H74.6705V11.1418C74.6705 9.79918 74.1201 9.12785 73.0191 9.12785C72.67 9.12785 72.3612 9.20841 72.0926 9.36953C71.8241 9.51722 71.5959 9.72534 71.4079 9.99387C71.2333 10.249 71.0924 10.5578 70.985 10.9203C70.891 11.2828 70.844 11.6722 70.844 12.0884V16.8817H68.2057V11.1418C68.2057 9.79918 67.6283 9.12785 66.4736 9.12785C66.138 9.12785 65.8426 9.20841 65.5875 9.36953C65.3324 9.51722 65.1175 9.72534 64.943 9.99387C64.7685 10.249 64.6342 10.5578 64.5402 10.9203C64.4462 11.2828 64.3992 11.6722 64.3992 12.0884V16.8817H61.7609V7.01317Z" fill="black"/>
<path d="M85.4655 15.8344H85.3044C84.9956 16.2104 84.6196 16.5326 84.1766 16.8011C83.7469 17.0697 83.1897 17.2039 82.505 17.2039C81.9947 17.2039 81.5114 17.1167 81.0549 16.9421C80.6118 16.781 80.2224 16.5527 79.8868 16.2574C79.5511 15.962 79.2893 15.6062 79.1013 15.19C78.9133 14.7737 78.8194 14.3172 78.8194 13.8204C78.8194 13.3102 78.9201 12.8537 79.1215 12.4509C79.3229 12.0347 79.6048 11.6789 79.9673 11.3835C80.3298 11.0881 80.7528 10.8666 81.2361 10.7189C81.7329 10.5578 82.27 10.4772 82.8473 10.4772C83.4918 10.4772 84.0222 10.5309 84.4384 10.6383C84.8546 10.7323 85.197 10.833 85.4655 10.9404V10.6383C85.4655 10.1147 85.2574 9.68506 84.8412 9.34939C84.425 9.0003 83.908 8.82576 83.2904 8.82576C82.3774 8.82576 81.6054 9.20841 80.9743 9.97373L79.061 8.66464C80.1083 7.34883 81.5382 6.69093 83.3508 6.69093C84.8815 6.69093 86.0496 7.05345 86.8552 7.77848C87.6608 8.49009 88.0636 9.55079 88.0636 10.9606V16.8817H85.4655V15.8344ZM85.4655 12.8739C85.1567 12.7262 84.8345 12.612 84.4988 12.5315C84.1766 12.4375 83.8208 12.3905 83.4314 12.3905C82.8003 12.3905 82.3103 12.5315 81.9612 12.8134C81.6255 13.082 81.4577 13.4176 81.4577 13.8204C81.4577 14.2232 81.6188 14.5455 81.941 14.7872C82.2767 15.0288 82.6594 15.1497 83.089 15.1497C83.4381 15.1497 83.7603 15.0893 84.0557 14.9684C84.3511 14.8341 84.5995 14.6663 84.8009 14.4649C85.0157 14.2501 85.1768 14.0084 85.2843 13.7399C85.4051 13.4579 85.4655 13.1693 85.4655 12.8739Z" fill="black"/>
<path d="M91.0521 9.26883H89.3201V7.01317H91.0521V3.99219H93.6904V7.01317H96.1072V9.26883H93.6904V13.0954C93.6904 13.3237 93.7106 13.5385 93.7509 13.7399C93.8046 13.9279 93.8986 14.089 94.0328 14.2232C94.2208 14.4381 94.4893 14.5455 94.8384 14.5455C95.0667 14.5455 95.2479 14.5253 95.3822 14.4851C95.5165 14.4313 95.644 14.3642 95.7648 14.2837L96.51 16.5997C96.2012 16.7474 95.8655 16.8548 95.503 16.922C95.1539 17.0025 94.7646 17.0428 94.3349 17.0428C93.8381 17.0428 93.3883 16.969 92.9855 16.8213C92.5962 16.6602 92.2672 16.4453 91.9987 16.1768C91.3676 15.5726 91.0521 14.7133 91.0521 13.5989V9.26883Z" fill="black"/>
<path d="M107.295 14.5052C106.838 15.3108 106.22 15.962 105.442 16.4588C104.676 16.9555 103.737 17.2039 102.622 17.2039C101.87 17.2039 101.172 17.0764 100.528 16.8213C99.8966 16.5527 99.3461 16.1835 98.8761 15.7136C98.4062 15.2437 98.037 14.6932 97.7684 14.0621C97.5133 13.4176 97.3858 12.7127 97.3858 11.9474C97.3858 11.2358 97.5133 10.5645 97.7684 9.93345C98.0236 9.28897 98.3794 8.73177 98.8359 8.26184C99.2924 7.77848 99.8294 7.39582 100.447 7.11387C101.078 6.83191 101.77 6.69093 102.521 6.69093C103.314 6.69093 104.019 6.82519 104.636 7.09373C105.254 7.34883 105.771 7.71135 106.187 8.18128C106.603 8.63778 106.919 9.18156 107.133 9.81261C107.348 10.4437 107.456 11.1284 107.456 11.8669C107.456 11.9609 107.456 12.0414 107.456 12.1086C107.442 12.1891 107.436 12.263 107.436 12.3301C107.422 12.3972 107.415 12.4711 107.415 12.5516H99.9838C100.038 12.9544 100.145 13.3035 100.306 13.5989C100.481 13.8809 100.689 14.1225 100.93 14.3239C101.186 14.5119 101.461 14.6529 101.756 14.7469C102.052 14.8274 102.354 14.8677 102.662 14.8677C103.267 14.8677 103.763 14.7334 104.153 14.4649C104.556 14.183 104.871 13.8339 105.099 13.4176L107.295 14.5052ZM104.898 10.6786C104.885 10.5041 104.824 10.3094 104.717 10.0946C104.623 9.87974 104.475 9.67834 104.274 9.49037C104.086 9.3024 103.844 9.14799 103.549 9.02715C103.267 8.90631 102.924 8.84589 102.521 8.84589C101.958 8.84589 101.461 9.00701 101.031 9.32925C100.601 9.65149 100.299 10.1013 100.125 10.6786H104.898Z" fill="black"/>
</svg>
